<?xml version="1.0" ?><svg id="outline" viewBox="0 0 340 340" xmlns="http://www.w3.org/2000/svg"><title/><path d="M106.421,114.861c-4.736-4.064-19.089-14.689-34.971-9.847-13.318,4.056-16.662,15.747-16.6,24.113-21.01.791-27.211,14.713-28.928,20.849a20.66,20.66,0,0,0-11.132,7.779A14.127,14.127,0,0,0,13.747,172.5a14.517,14.517,0,0,0,12.95,7.935H46.273v39.092a26.233,26.233,0,0,0,52.466,0v-.373a4,4,0,0,0-8,0v.373a18.233,18.233,0,0,1-36.466,0V180.433h19c7.467,31.672,37.182,35.212,49.878,35.229a32.664,32.664,0,0,1,21.573,7.956c2.825,2.48,4.5,4.917,4.829,7.046.189,1.209.357,2.527.513,4.023v56.042c0,5.692-2.4,11.184-7.125,16.321a4,4,0,1,0,5.886,5.418c6.13-6.662,9.239-13.976,9.239-21.739V234.482a3.914,3.914,0,0,0-.021-.406c-.176-1.724-.369-3.245-.589-4.651-.636-4.058-3.144-8.035-7.453-11.819a40.668,40.668,0,0,0-26.842-9.944c-12.995-.017-34.993-3.706-41.62-27.229H95.156c3.712,7.821,12.384,18.119,32.33,18.119q1.534,0,3.162-.083h14.227a14.8,14.8,0,0,0,6.909-1.71v8.978a4,4,0,0,0,8,0V176.8a14.331,14.331,0,0,0,4.772-9.365c1.38-14.046-6.816-20.978-13.141-23.468-1.16-10.3-5.258-18.118-12.2-23.26C127.745,112.217,112.092,113.887,106.421,114.861Zm45.363,68.7a6.916,6.916,0,0,1-6.909,6.909H130.543c-.072,0-.142,0-.213.006-14.276.762-21.9-4.245-25.959-10.042h45.79C152.277,180.433,151.784,183.56,151.784,183.56Zm-17.3-56.4c5.55,4.124,8.642,10.88,9.189,20.081a4.041,4.041,0,0,0,3.179,3.679c1.132.245,11.021,2.77,9.747,15.737a6.36,6.36,0,0,1-2.907,4.747c-.065.04-.131.077-.194.121a6.513,6.513,0,0,1-3.332.911H26.7a6.465,6.465,0,0,1-5.834-3.591,6.076,6.076,0,0,1,.429-6.426c1.96-2.737,4.832-4.45,8.778-5.24a4,4,0,0,0,3.194-3.508c.072-.691,1.956-16.26,22.9-16.562a21.293,21.293,0,0,0,2.334,4.368,19.86,19.86,0,0,0-5.023,7.676,4,4,0,0,0,2.441,5.1,3.951,3.951,0,0,0,1.331.23,4,4,0,0,0,3.772-2.67,12.887,12.887,0,0,1,5.114-6.2,4,4,0,0,0,.923-6.3c-3.368-3.437-3.834-6.331-3.866-6.564-.007-.06-.027-.115-.036-.174s0-.093-.009-.139c-.114-.64-2.652-15.721,10.632-19.766,14.435-4.393,28.492,9.215,28.627,9.347a4.01,4.01,0,0,0,3.748,1.05C106.328,123.025,123.569,119.05,134.479,127.157Z"/><path d="M118.266,324.469a4,4,0,0,0,0,8h1.547a4,4,0,0,0,0-8Z"/><path d="M102.984,328.469a4,4,0,0,0-4-4H13.86c.063-6.536,2.256-20.725,19.086-27.823a4.053,4.053,0,0,0,2.443-3.539c.026-.58.861-14.272,19.475-19.627a23.252,23.252,0,0,1,19.5,2.723,18.972,18.972,0,0,1,8.424,13.675,4,4,0,0,0,4.7,3.382c1.374-.255,33.792-5.909,43.028,25a17.7,17.7,0,0,0,3.141,6.123c.151.186.31.376.47.56a21.962,21.962,0,0,0,16.695,7.525h28.758a4,4,0,0,0,0-8H150.826a13.977,13.977,0,0,1-10.645-4.759q-.162-.186-.306-.365a9.76,9.76,0,0,1-1.69-3.376c-9.218-30.847-37.752-31.778-48.253-31.018a26.791,26.791,0,0,0-11.09-15.379,31.207,31.207,0,0,0-26.189-3.779c-19.342,5.563-23.876,18.779-24.938,24.437C2.383,302.387,6.087,328.8,6.129,329.072a4,4,0,0,0,3.954,3.4h88.9A4,4,0,0,0,102.984,328.469Z"/><path d="M274,324.469H259.8c-1.532-22.6-12-35.212-20.784-41.892a51.867,51.867,0,0,0-6.181-4.039c23.1-.757,30.082,18.294,30.428,19.28,0,.013.012.023.017.036s0,.028.01.042a32.593,32.593,0,0,1,1.694,12.475,4,4,0,0,0,3.579,4.38c.136.013.271.02.4.02a4,4,0,0,0,3.975-3.6,40.442,40.442,0,0,0-2.146-16.042l0-.006c-.754-2.041-13.4-34.2-54.042-21.808a4,4,0,0,0,.541,7.777,42.049,42.049,0,0,1,16.878,7.851,42.634,42.634,0,0,1,4.6,4.071c-6.459-.984-13.753-.479-21.827,1.544a4,4,0,0,0-.058,7.745c.847.228,19.468,5.448,20.592,22.166H208.412c-8.007-6.362-10.635-25.087-10.98-32.125V232.958c6.754-17.028,24.079-22.633,24.209-22.674,31.923-9.466,38.416-33.454,39.477-46.7H278.4q1.832,0,3.556-.056a4,4,0,0,0-.129-8l-.133,0q-1.6.052-3.294.052H197.432V142.2c21.592-1.354,32.023-10.1,35.888-14.4,18.791,3.52,37.4-8.524,42.071-27.605,4.509-18.41-6.183-30.989-14.183-36.35,2.137-14.385-.557-25.731-8.022-33.755-11.77-12.651-31.531-12.621-37.731-12.269-21.293-19.081-46.053-6.566-53.109-2.306-15.1-6.144-28.214-6.785-39-1.9-10.827,4.9-16.117,14.006-18.146,18.443C74.574,35.4,70.908,60.763,70.489,67.985c-8.966,8.767-13.657,18.718-13.948,29.6a4,4,0,1,0,8,.214c.244-9.133,4.489-17.584,12.618-25.114A4.005,4.005,0,0,0,78.435,69.6c-.039-1.061-.589-24.534,24.461-29.136a37.059,37.059,0,0,0,1.228,13.744A4,4,0,1,0,111.84,52.1c-2.428-8.879-.29-14.431-.169-14.734.016-.039.021-.08.036-.119.026-.068.06-.131.082-.2.036-.11,3.687-11.1,14.854-16.152,9.116-4.123,20.723-3.186,34.5,2.787a4.008,4.008,0,0,0,3.935-.429c1.042-.749,25.766-18.149,46.158,1.563a3.963,3.963,0,0,0,3.226,1.1c.214-.022,21.788-2.29,32.867,9.619,6.064,6.518,7.946,16.373,5.606,29.285-.473,1.18-2.836,6.479-7.894,8.559a4,4,0,1,0,3.041,7.4,22.343,22.343,0,0,0,10.29-9.091c4.841,3.786,12.729,12.394,9.25,26.6-3.782,15.444-19.171,25.011-34.312,21.325q-.27-.066-.54-.136a4,4,0,0,0-4.424,1.772c-.081.131-8.41,13.133-36.693,13.133H162.626a4,4,0,1,0,0,8h26.806v17.188l0,.019,0,.02V292.44c0,.061,0,.122,0,.184.112,2.449,1.172,20.216,8.536,31.845h-1.23a4,4,0,0,0,0,8H274a4,4,0,0,0,0-8ZM197.432,163.587h36.305c-2.854,12.463-12.043,20.382-27.418,23.536a4,4,0,0,0,.8,7.919,4.075,4.075,0,0,0,.808-.083c18.991-3.9,30.933-14.973,33.994-31.372H253.1c-1.108,12.659-7.464,31.237-33.769,39.038a51.111,51.111,0,0,0-21.9,14.969Zm48.046,160.882c-.559-11.2-6.984-19.028-14-23.946a29.529,29.529,0,0,1,14.988,3.334,55.163,55.163,0,0,1,5.3,20.612Z"/><path d="M294.258,332.469H306.38a4.116,4.116,0,0,0,4.153-3.607,4,4,0,0,0-3.981-4.393h-9.144c2.585-4.354,7.532-9.975,16.006-10.446,20.67-1.149,20.669-13.889,20.669-22.318a4.071,4.071,0,0,0-2.75-3.945,3.811,3.811,0,0,0-4.358,1.429c-.114.133-2.871,3.271-10.543,4.29a35.968,35.968,0,0,1-4.434.257c-4.524,0-13.964.516-21.645,4.56.116-10.838,1.548-30.664,9.732-43.233a4.192,4.192,0,0,0,.6-3.49,4.005,4.005,0,0,0-4.418-2.82c-.875.129-21.527,3.42-29.886,27.665a4,4,0,0,0,2.881,5.2,4.118,4.118,0,0,0,4.733-2.741c3.515-10.081,9.54-15.655,14.6-18.7-7.572,19.4-6.238,43.842-6.087,46.214v5.112a4.116,4.116,0,0,0,3.607,4.153,4,4,0,0,0,4.393-3.981v-3.806c4.819-4.5,14.006-6.135,21.373-6.135h.1a40.665,40.665,0,0,0,5.5-.327,33.257,33.257,0,0,0,8.026-2.041c-1.053,3.879-4.044,6.194-12.54,6.667-14.687.817-21.642,12.033-24.281,17.868a6.06,6.06,0,0,0,.7,6.139h0A6.093,6.093,0,0,0,294.258,332.469Z"/><path d="M143.489,95.544c5.464,3.652,12.767,4.187,21.73,1.6a27.96,27.96,0,0,0,15.658,8.078,27.667,27.667,0,0,0,4.093.3c7.319,0,14.975-2.849,22.832-8.5,4.571,1.4,15.02,3.383,22.592-4.362a4,4,0,1,0-5.721-5.592c-5.868,6-15.869,1.844-15.955,1.806a4,4,0,0,0-4.035.5c-8.119,6.248-15.691,8.928-22.5,7.953a20.1,20.1,0,0,1-12.418-7.1,4,4,0,0,0-4.552-1.465c-7.524,2.572-13.479,2.63-17.222.165-4.434-2.919-4.966-8.752-4.98-8.905a4,4,0,0,0-7.982.53C135.05,80.952,135.733,90.362,143.489,95.544Z"/><path d="M268.47,171.317a4,4,0,0,0-4,4v22.059a18.839,18.839,0,0,0,37.677,0V160.191a25.821,25.821,0,0,0,8.6-41.873c1.256-14.616-5.258-26.7-18.931-35.044a4,4,0,0,0-4.166,6.83c11.507,7.021,16.534,16.8,14.957,29.049a11.126,11.126,0,0,1-4.417,6.122c-2.306,1.394-5.36,1.59-9.076.583a4,4,0,0,0-5,3.28,8.262,8.262,0,0,1-3.474,5c-3.031,1.967-7.845,2.1-13.922.39a4,4,0,1,0-2.168,7.7,36.35,36.35,0,0,0,9.8,1.5,19.165,19.165,0,0,0,10.644-2.878,15.953,15.953,0,0,0,5.728-6.531,17.6,17.6,0,0,0,11.612-2.2,17.129,17.129,0,0,0,5.226-4.98,17.437,17.437,0,0,1,2.063,13.215,17.72,17.72,0,0,1-7.47,10.824V144.1a4,4,0,0,0-8,0v53.28a10.839,10.839,0,0,1-21.677,0V175.317A4,4,0,0,0,268.47,171.317Z"/><circle cx="322.688" cy="328.469" r="3.995"/></svg>